# xmcd
#
# Track frame offsets: 
#        150
#        14353
#        29528
#        43920
#        56590
#        69435
#        84899
#        100017
#        115186
#        128453
#        141257
#        154893
#        169505
#        182971
#        195773
#        208169
#        222453
#        234250
#        248495
#        264091
#        281177
#
# Disc length: 3948 seconds
#
# Revision: 0
# Processed by: cddbd v1.5.2PL0 Copyright (c) Steve Scherf et al.
# Submitted via: ExactAudioCopy v0.95b3
#
DISCID=1f0f6a15
DTITLE=Benny Carter  - Volume 9 1938-1939 Complete Edition
DYEAR=1900
DGENRE=
TTITLE0=I'm Coming Vitginia
TTITLE1=Farewell Blues
TTITLE2=Blue Light Blues
TTITLE3=Liza
TTITLE4=I'm In The Mood For Swing
TTITLE5=Shoe Shiner's Drag
TTITLE6=Any Time At All
TTITLE7=Muskrat Ramble
TTITLE8=I Got Ways Like The Revil
TTITLE9=That Made Him Mad
TTITLE10=You Must Have Been A Beautiful Baby
TTITLE11=Just A Kid Named Joe
TTITLE12=Jeepers Creepers
TTITLE13=I Must See Annie Tonight
TTITLE14=Twelwe Bar Stamped
TTITLE15=Feather Bed Lament
TTITLE16=Men Of Harlem
TTITLE17=Ocean Motion
TTITLE18=Symphony In Riffs
TTITLE19=Blue Interlude
TTITLE20=A Home In The Clouds
EXTD=
EXTT0=
EXTT1=
EXTT2=
EXTT3=
EXTT4=
EXTT5=
EXTT6=
EXTT7=
EXTT8=
EXTT9=
EXTT10=
EXTT11=
EXTT12=
EXTT13=
EXTT14=
EXTT15=
EXTT16=
EXTT17=
EXTT18=
EXTT19=
EXTT20=
PLAYORDER=
